<svg width="256" height="256" viewBox="0 0 256 256" fill="none" xmlns="http://www.w3.org/2000/svg">
<rect width="256" height="256" rx="16" fill="#8CFF66"/>
<path d="M48.4543 75H68.2543V161.1H115.954V180H48.4543V75ZM187.85 169.2C185.85 173.9 183.05 177.25 179.45 179.25C175.85 181.15 171.65 182.1 166.85 182.1C162.35 182.1 158.1 181.25 154.1 179.55C150.2 177.85 146.75 175.35 143.75 172.05C140.75 168.75 138.35 164.75 136.55 160.05C134.85 155.35 134 150 134 144V141.6C134 135.7 134.85 130.4 136.55 125.7C138.25 121 140.55 117 143.45 113.7C146.35 110.4 149.7 107.9 153.5 106.2C157.4 104.4 161.55 103.5 165.95 103.5C171.25 103.5 175.5 104.4 178.7 106.2C182 108 184.6 110.8 186.5 114.6H189.2V105.6H208.1V157.5C208.1 160.5 209.45 162 212.15 162H215V180H202.1C198.7 180 195.9 179 193.7 177C191.6 175 190.55 172.4 190.55 169.2H187.85ZM171.05 164.1C176.55 164.1 180.95 162.3 184.25 158.7C187.55 155 189.2 150 189.2 143.7V141.9C189.2 135.6 187.55 130.65 184.25 127.05C180.95 123.35 176.55 121.5 171.05 121.5C165.55 121.5 161.15 123.35 157.85 127.05C154.55 130.65 152.9 135.6 152.9 141.9V143.7C152.9 150 154.55 155 157.85 158.7C161.15 162.3 165.55 164.1 171.05 164.1Z" fill="black"/>
<path d="M19.168 35.024V16.4H41.632V22.448H25.504V31.568H26.368C26.816 30.32 27.648 29.248 28.864 28.352C30.112 27.424 31.776 26.96 33.856 26.96C35.424 26.96 36.832 27.232 38.08 27.776C39.328 28.32 40.384 29.072 41.248 30.032C42.112 30.992 42.768 32.144 43.216 33.488C43.696 34.832 43.936 36.304 43.936 37.904V38.192C43.936 39.888 43.648 41.488 43.072 42.992C42.528 44.496 41.712 45.824 40.624 46.976C39.568 48.096 38.256 48.992 36.688 49.664C35.12 50.336 33.312 50.672 31.264 50.672C29.216 50.672 27.408 50.4 25.84 49.856C24.272 49.28 22.944 48.496 21.856 47.504C20.8 46.48 19.984 45.28 19.408 43.904C18.864 42.496 18.592 40.976 18.592 39.344V38.192H24.928V38.768C24.928 40.464 25.44 41.872 26.464 42.992C27.52 44.08 29.056 44.624 31.072 44.624C33.088 44.624 34.672 44.08 35.824 42.992C37.008 41.904 37.6 40.4 37.6 38.48C37.6 36.656 37.168 35.296 36.304 34.4C35.44 33.472 34.304 33.008 32.896 33.008C31.968 33.008 31.216 33.216 30.64 33.632C30.064 34.016 29.696 34.48 29.536 35.024H19.168ZM48.2706 16.4H71.8866V26.288L59.7426 44.048C59.1026 45.008 58.5906 45.84 58.2066 46.544C57.8546 47.216 57.6786 47.984 57.6786 48.848V50H50.8626V48.56C50.8626 47.92 50.9106 47.344 51.0066 46.832C51.1026 46.32 51.2466 45.808 51.4386 45.296C51.6626 44.784 51.9506 44.24 52.3026 43.664C52.6546 43.088 53.0866 42.416 53.5986 41.648L66.1266 23.312V22.448H48.2706V16.4Z" fill="black"/>
</svg>
